<svg width="24" height="24" viewBox="0 0 24 24" fill="none" xmlns="http://www.w3.org/2000/svg">
<path d="M23.319 1.17987C23.307 1.07268 23.2835 0.967078 23.249 0.864866V0.759866C23.1931 0.630026 23.114 0.511432 23.0157 0.409866C22.9167 0.316842 22.8022 0.241826 22.6774 0.1882H22.5724C22.4642 0.10713 22.3414 0.047709 22.2107 0.0131997H22.1524C22.0364 -0.00439989 21.9184 -0.00439989 21.8024 0.0131997L0.802375 7.0132C0.568962 7.08992 0.365728 7.23837 0.221649 7.43739C0.0775693 7.63641 0 7.87583 0 8.12153C0 8.36723 0.0775693 8.60666 0.221649 8.80568C0.365728 9.00469 0.568962 9.15315 0.802375 9.22987L10.754 12.5432L14.0674 22.4949C14.1441 22.7283 14.2925 22.9315 14.4916 23.0756C14.6906 23.2197 14.93 23.2972 15.1757 23.2972C15.4214 23.2972 15.6608 23.2197 15.8599 23.0756C16.0589 22.9315 16.2073 22.7283 16.284 22.4949L23.284 1.49487C23.31 1.39195 23.3218 1.28597 23.319 1.17987ZM17.8357 3.85153L11.3374 10.3499L4.83904 8.17987L17.8357 3.85153ZM15.1524 18.4932L12.9824 11.9949L19.4807 5.49653L15.1524 18.4932Z" fill="white"/>
</svg>
